<?xml version="1.0" encoding="UTF-8"?>
<svg version="1.1" xmlns="http://www.w3.org/2000/svg" width="160" height="42">
<path d="M0 0 C5.7112319 3.71659951 11.22421542 7.57788688 16.5625 11.8125 C17.18962891 12.30169922 17.81675781 12.79089844 18.46289062 13.29492188 C19.99620372 14.50384812 21.50121382 15.7485242 23 17 C23 17.33 23 17.66 23 18 C20.03 18 17.06 18 14 18 C14 25.26 14 32.52 14 40 C12.35 39.01 10.7 38.02 9 37 C8.19570557 36.57710693 7.39141113 36.15421387 6.56274414 35.71850586 C3.81709683 34.02757669 1.9779627 32.56437047 0 30 C-1.1095797 24.81621746 -0.85462723 19.81037893 -0.5625 14.5625 C-0.51729695 13.14921626 -0.47624245 11.7357934 -0.43945312 10.32226562 C-0.3408489 6.87859349 -0.18591336 3.44019175 0 0 Z " fill="#103D64" transform="translate(25,1)"/>
<path d="M0 0 C0 13.2 0 26.4 0 40 C-1.65 39.01 -3.3 38.02 -5 37 C-5.81082031 36.53722656 -6.62164062 36.07445312 -7.45703125 35.59765625 C-10.06567756 33.89749373 -12.02972895 32.42494898 -14 30 C-14.76001575 25.89180676 -14.5488502 22.12654036 -14 18 C-16.64 18 -19.28 18 -22 18 C-4.5625 -0 -4.5625 -0 0 0 Z " fill="#103D64" transform="translate(22,1)"/>
</svg>
